<svg width="40" height="40" viewBox="0 0 40 40" fill="none" xmlns="http://www.w3.org/2000/svg">
<rect width="40" height="40" rx="20" fill="#F4F5F6"/>
<path fill-rule="evenodd" clip-rule="evenodd" d="M21.4697 24.5303C21.1768 24.2374 21.1768 23.7626 21.4697 23.4697L24.9393 20L21.4697 16.5303C21.1768 16.2374 21.1768 15.7626 21.4697 15.4697C21.7626 15.1768 22.2374 15.1768 22.5303 15.4697L26.5303 19.4697C26.8232 19.7626 26.8232 20.2374 26.5303 20.5303L22.5303 24.5303C22.2374 24.8232 21.7626 24.8232 21.4697 24.5303Z" fill="#141416"/>
<path fill-rule="evenodd" clip-rule="evenodd" d="M26.75 20C26.75 20.4142 26.4142 20.75 26 20.75L14 20.75C13.5858 20.75 13.25 20.4142 13.25 20C13.25 19.5858 13.5858 19.25 14 19.25L26 19.25C26.4142 19.25 26.75 19.5858 26.75 20Z" fill="#141416"/>
</svg>
