<svg width="49" height="48" viewBox="0 0 49 48" fill="none" xmlns="http://www.w3.org/2000/svg">
<rect x="0.5" width="48" height="48" rx="24" fill="#3772FF" fill-opacity="0.7"/>
<path fill-rule="evenodd" clip-rule="evenodd" d="M29.0962 27.9099C31.6346 25.3715 31.6346 21.2559 29.0962 18.7175C26.5578 16.1791 22.4422 16.1791 19.9038 18.7175C17.3654 21.2559 17.3654 25.3715 19.9038 27.9099L24.5 32.5061L29.0962 27.9099ZM30.1569 17.6569C33.281 20.7811 33.281 25.8464 30.1569 28.9706L25.2071 33.9203C24.8166 34.3109 24.1834 34.3109 23.7929 33.9203L18.8431 28.9706C15.719 25.8464 15.719 20.7811 18.8431 17.6569C21.9673 14.5327 27.0327 14.5327 30.1569 17.6569Z" fill="white"/>
<path d="M24.5 25C23.6716 25 23 24.3284 23 23.5C23 22.6716 23.6716 22 24.5 22C25.3284 22 26 22.6716 26 23.5C26 24.3284 25.3284 25 24.5 25Z" fill="white"/>
</svg>
