<svg width="12" height="11" viewBox="0 0 12 11" fill="none" xmlns="http://www.w3.org/2000/svg">
<path fill-rule="evenodd" clip-rule="evenodd" d="M5.25252 1.05095C5.5582 0.43158 6.4414 0.431585 6.74708 1.05095L7.89926 3.38553L10.4756 3.75989C11.1591 3.85921 11.432 4.69919 10.9375 5.1813L9.07319 6.99851L9.51328 9.56446C9.63004 10.2452 8.91551 10.7643 8.30416 10.4429L5.9998 9.23146L3.69544 10.4429C3.08408 10.7643 2.36955 10.2452 2.48631 9.56446L2.92641 6.99851L1.06214 5.1813C0.567539 4.69919 0.840468 3.85921 1.52398 3.75989L4.10034 3.38553L5.25252 1.05095ZM5.9998 1.79635L4.95829 3.90667C4.83691 4.15262 4.60227 4.32309 4.33085 4.36253L2.00198 4.70094L3.68716 6.34359C3.88357 6.53504 3.97319 6.81087 3.92683 7.0812L3.52901 9.40066L5.61201 8.30556C5.85478 8.17793 6.14481 8.17793 6.38758 8.30556L8.47058 9.40066L8.07277 7.0812C8.0264 6.81087 8.11602 6.53504 8.31243 6.34359L9.99762 4.70094L7.66875 4.36253C7.39732 4.32309 7.16268 4.15262 7.0413 3.90667L5.9998 1.79635Z" fill="#24B34C"/>
</svg>
